<?xml version="1.0" encoding="UTF-8"?>
<svg id="uuid-65b63d34-d24e-4820-be69-c67ffd8936a8" xmlns="http://www.w3.org/2000/svg" viewBox="0 0 192 192">
       <style>
        <![CDATA[
            path{ color:#dc3856;}
            @media (prefers-color-scheme: dark) {
            path { fill: #05a696; }
            }
            path.noStroke {
                fill:  currentColor;
            }
            path.withStroke {
                stroke: currentColor;
                fill:   currentColor;
                stroke-miterlimit:10;
                stroke-width:"1.71px";
            }
        ]]>
      </style>
<path class="withStroke" d="M44.65,97.55l36.22,24.98c.89,.61,1.42,1.62,1.42,2.7v.21c0,2.6-2.88,4.17-5.06,2.74-9.26-6.06-28.49-18.89-39.72-26.34-4.07-2.7-4.07-8.68,0-11.38,11.22-7.46,30.47-20.28,39.72-26.34,2.18-1.43,5.06,.14,5.06,2.74h0c0,1.07-.53,2.08-1.41,2.69l-36.24,25.18c-.98,.68-.98,2.14,0,2.82Z" />
<path class="withStroke" d="M147.35,97.55l-36.22,24.98c-.89,.61-1.42,1.62-1.42,2.7v.21c0,2.6,2.88,4.17,5.06,2.74,9.25-6.06,28.48-18.88,39.71-26.34,4.07-2.71,4.07-8.69,0-11.39-11.23-7.46-30.47-20.28-39.71-26.33-2.18-1.43-5.06,.14-5.06,2.74h0c0,1.07,.53,2.08,1.41,2.69l36.24,25.18c.98,.68,.98,2.14,0,2.82Z" />
<path class="noStroke" d="M13.71,171.43V6.86C13.71,3.07,10.64,0,6.86,0h0C3.07,0,0,3.07,0,6.86V178.29s0,0,0,0c0,7.57,6.14,13.71,13.71,13.71h61.71c3.79,0,6.86-3.07,6.86-6.86h0c0-3.79-3.07-6.86-6.86-6.86H20.57c-3.79,0-6.86-3.07-6.86-6.86Z"/>
<path class="noStroke" d="M178.29,20.57V185.14c0,3.79,3.07,6.86,6.86,6.86h0c3.79,0,6.86-3.07,6.86-6.86V13.71s0,0,0,0C192,6.17,185.83,0,178.29,0h-61.71c-3.79,0-6.86,3.07-6.86,6.86h0c0,3.79,3.07,6.86,6.86,6.86h54.86c3.79,0,6.86,3.07,6.86,6.86Z"/>
</svg>
